<svg xmlns="http://www.w3.org/2000/svg" xmlns:xlink="http://www.w3.org/1999/xlink" version="1.1" id="Layer_1" x="0px" y="0px" viewBox="5.0 -10.0 100.0 135.0" enable-background="new 0 0 100 100" xml:space="preserve" height="100px" width="100px">
<path fill="#0366A5" d="M50,5.1C24.8,5,5,24.8,5,50.1v0.2c0,11.9,4.6,22.6,12.2,30.6c0.3-0.5,0.6-1.1,1-1.6  C11,71.6,6.8,61.5,6.8,50.3v-0.2c0-23.9,18.6-42.8,42.3-43.2v46H35.6L50,77.2l15.3-24.3H50.9v-46c23.4,0.5,42.3,19.8,42.3,43.2  c0,11.2-4.3,21.4-11.3,29.1l0.9,1.6C90.4,72.8,95,62,95,50.1C95,25.3,74.8,5.1,50,5.1z"/></svg>