<svg xmlns="http://www.w3.org/2000/svg" xmlns:xlink="http://www.w3.org/1999/xlink" version="1.1" x="0px" y="0px" viewBox="0 0 100 125" enable-background="new 0 0 100 100" xml:space="preserve"><path  fill="#0366A5" d="M74.921,50.316c0,2.017-1.639,3.652-3.662,3.652H29.75c-2.021,0-3.663-1.636-3.663-3.652l0,0  c0-2.019,1.641-3.654,3.663-3.654h41.509C73.282,46.663,74.921,48.298,74.921,50.316L74.921,50.316z"/><path  fill="#0366A5" d="M74.921,30.68c0,2.018-1.639,3.653-3.662,3.653H29.75c-2.021,0-3.663-1.635-3.663-3.653l0,0  c0-2.018,1.641-3.653,3.663-3.653h41.509C73.282,27.027,74.921,28.662,74.921,30.68L74.921,30.68z"/><path  fill="#0366A5" d="M74.921,70.632c0,2.019-1.639,3.654-3.662,3.654H29.75c-2.021,0-3.663-1.636-3.663-3.654l0,0  c0-2.016,1.641-3.653,3.663-3.653h41.509C73.282,66.979,74.921,68.616,74.921,70.632L74.921,70.632z"/></svg>