<svg xmlns="http://www.w3.org/2000/svg" xmlns:xlink="http://www.w3.org/1999/xlink" version="1.1" id="Layer_1" x="0px" y="0px" viewBox="5.0 -10.0 100.0 135.0" enable-background="new 0 0 100 100" xml:space="preserve" height="100px" width="100px">
<polygon fill="#0366A5" points="35.6,47.3 49.1,47.3 49.1,94.9 50.9,94.9 50.9,47.3 65.3,47.3 50,23 "/>
<path fill="#0366A5" d="M50,5C24.8,4.9,5,24.6,5,49.9v0.2C5,62,9.6,72.7,17.2,80.7c0.3-0.5,0.6-1.1,1-1.6  c-7.1-7.6-11.3-17.8-11.3-29v-0.2c0-24.1,19-43.2,43.1-43.2c23.8,0,43.2,19.4,43.2,43.2c0,11.1-4.3,21.4-11.2,29l0.9,1.6  c7.6-8,12.1-18.8,12.1-30.7C94.9,25.2,74.7,5,50,5z"/></svg>