<svg xmlns="http://www.w3.org/2000/svg" xmlns:xlink="http://www.w3.org/1999/xlink" version="1.1" id="Layer_1" x="0px" y="0px" width="100px" height="100px" viewBox="5.0 -10.0 100.0 135.0" enable-background="new 0 0 100 100" xml:space="preserve">
<g>
	<path fill="#FF5722" d="M73.104,64.133c-1.17,0.345-2.887,0.384-4.729,0.117c-1.976-0.287-3.992-0.891-5.973-1.781   c3.533-0.514,6.274-0.356,8.618,0.475C71.576,63.141,72.488,63.667,73.104,64.133 M53.392,60.892   c-0.144,0.039-0.285,0.076-0.426,0.115c-0.951,0.259-1.876,0.511-2.767,0.736l-1.202,0.305c-2.418,0.612-4.89,1.237-7.331,1.981   c0.928-2.238,1.79-4.5,2.634-6.712c0.625-1.637,1.263-3.31,1.923-4.961c0.335,0.553,0.684,1.106,1.048,1.661   C48.927,56.54,51.009,58.873,53.392,60.892 M47.242,35.659c0.157,2.761-0.439,5.417-1.313,7.965   c-1.076-3.151-1.578-6.63-0.232-9.439c0.345-0.72,0.628-1.105,0.811-1.306C46.791,33.317,47.164,34.295,47.242,35.659    M34.62,70.635c-0.605,1.082-1.222,2.095-1.855,3.051c-1.527,2.301-4.024,4.765-5.307,4.765c-0.126,0-0.279-0.02-0.502-0.256   c-0.144-0.151-0.167-0.259-0.16-0.406c0.043-0.846,1.164-2.353,2.788-3.75C31.058,72.771,32.724,71.645,34.62,70.635 M77.19,64.252   c-0.196-2.818-4.94-4.626-4.987-4.643c-1.834-0.65-3.826-0.966-6.09-0.966c-2.424,0-5.037,0.351-8.393,1.135   c-2.986-2.117-5.566-4.767-7.493-7.701c-0.851-1.296-1.616-2.59-2.283-3.854c1.628-3.893,3.094-8.079,2.828-12.767   c-0.215-3.759-1.91-6.284-4.215-6.284c-1.581,0-2.943,1.171-4.05,3.484c-1.975,4.122-1.456,9.396,1.542,15.689   c-1.08,2.536-2.083,5.165-3.054,7.711c-1.208,3.165-2.453,6.43-3.856,9.536c-3.935,1.557-7.167,3.445-9.861,5.763   c-1.765,1.516-3.892,3.833-4.014,6.252c-0.059,1.139,0.331,2.184,1.125,3.021c0.843,0.889,1.903,1.357,3.068,1.358   c3.848,0,7.551-5.287,8.253-6.347c1.414-2.131,2.737-4.508,4.034-7.25c3.266-1.18,6.747-2.061,10.12-2.913l1.208-0.307   c0.908-0.231,1.852-0.486,2.82-0.751c1.025-0.277,2.079-0.564,3.15-0.837c3.464,2.203,7.189,3.64,10.822,4.167   c3.06,0.445,5.778,0.187,7.617-0.772C77.137,66.114,77.229,64.784,77.19,64.252 M84.642,88.484c0,5.161-4.549,5.479-5.467,5.49   H20.488c-5.142,0-5.452-4.58-5.462-5.49V10.517c0-5.166,4.557-5.479,5.462-5.49h39.645l0.021,0.021v15.471   c0,3.105,1.877,8.983,8.986,8.983H84.51l0.132,0.132V88.484z M80.998,25.975H69.141c-5.141,0-5.452-4.555-5.459-5.456V8.588   L80.998,25.975z M88.168,88.484V28.178L63.682,3.59V3.476h-0.117L61.599,1.5H20.488c-3.109,0-8.988,1.885-8.988,9.017v77.968   c0,3.118,1.879,9.016,8.988,9.016h58.693C82.289,97.5,88.168,95.616,88.168,88.484"/>
</g></svg>