<svg xmlns="http://www.w3.org/2000/svg" xmlns:xlink="http://www.w3.org/1999/xlink" version="1.1" x="0px" y="0px" width="100px" height="100px" viewBox="5.0 -10.0 100.0 135.0" enable-background="new 0 0 100 100" xml:space="preserve">
<g id="Captions">
</g>
<g id="Your_Icon">
	<path  fill="#00695C" d="M50,6C25.699,6,6,25.699,6,50s19.699,44,44,44s44-19.699,44-44S74.301,6,50,6z M50,87c-20.435,0-37-16.565-37-37   s16.565-37,37-37s37,16.565,37,37S70.435,87,50,87z"/>
	<path  fill="#00695C" d="M50,17c-18.226,0-33,14.774-33,33s14.774,33,33,33s33-14.774,33-33S68.226,17,50,17z M57.768,35.843   c0.352,0.654,0.611,1.375,0.782,2.157H66l-3,5h-4.453c-0.342,1.718-1.038,3.196-2.106,4.424c-1.572,1.809-4.831,3.086-7.778,3.831   c1.886,3.341,11.393,16.602,13.555,19.863C61.313,71.039,60.429,71,59.565,71c-0.865,0-1.749,0-2.652,0c-0.904,0-1.798,0-2.682,0   c-0.885,0-1.778,0.039-2.683,0.118L42,55.553l-3-5.467c0.048,0.005,0.1,0.015,0.146,0.019c0.216,0.021,2.422,0.03,2.619,0.03   c2.593,0,4.577-0.697,5.952-2.093c1.156-1.172,1.82-2.858,2.004-5.043H33l3-5h13.368c-0.039-0.14-0.072-0.29-0.117-0.419   c-0.354-1.021-0.895-1.798-1.621-2.328c-0.728-0.53-1.671-0.874-2.829-1.031c-0.917-0.124-3.444-0.196-5.067-0.222H33l3-5h30l-3,5   h-6.529C56.97,34.558,57.405,35.17,57.768,35.843z"/>
</g>
</svg>