<svg xmlns="http://www.w3.org/2000/svg" xmlns:xl="http://www.w3.org/1999/xlink" xmlns:dc="http://purl.org/dc/elements/1.1/" version="1.1" viewBox="0 0 100 125" x="0px" y="0px"><metadata> Produced by OmniGraffle 6.0.5 </metadata><g stroke="none" stroke-opacity="1" stroke-dasharray="none" fill="none" fill-opacity="1"><title>Canvas 2</title><g><title>Layer 1</title><path d="M 86.783045 45.733782 L 84.432865 80.348837 C 84.432865 80.348837 85.232865 83 88.432865 83 C 91.632865 83 92.432865 80.348837 92.432865 80.348837 L 90.082685 45.733782 C 91.29195 45.33748 92.43856 44.49872 93.38261 43.217507 C 96.11629 39.50753 95.11629 31.492471 92.38261 27.782493 C 89.64894 24.072496 87.21679 24.072496 84.483123 27.782493 C 81.74944 31.492471 80.74944 39.50753 83.483123 43.217507 C 84.42717 44.498721 85.57378 45.33748 86.783046 45.733782 Z M 62.798968 35.201032 C 51.864296 24.266304 34.135704 24.266304 23.201032 35.201032 C 12.266304 46.135704 12.266304 63.864296 23.201032 74.79897 C 34.135704 85.733696 51.864296 85.733696 62.798968 74.79897 C 73.733696 63.864296 73.733696 46.135704 62.798968 35.201032 M 58.96691 39.03309 C 67.78524 47.851374 67.78524 62.148626 58.96691 70.96691 C 50.148626 79.78524 35.851374 79.78524 27.03309 70.96691 C 18.214761 62.148626 18.214761 47.851374 27.03309 39.03309 C 35.851374 30.214761 50.148626 30.214761 58.96691 39.03309 M 57.849226 40.150774 C 49.648222 31.949728 36.351778 31.949728 28.150774 40.150774 C 19.949728 48.351778 19.949728 61.648222 28.150774 69.849226 C 36.351778 78.05027 49.648222 78.05027 57.849226 69.849226 C 66.050272 61.648222 66.050272 48.351778 57.849226 40.150774 M 8.352665 45.69718 L 6 80.348837 C 6 80.348837 6.8 83 10 83 C 13.2 83 14 80.348837 14 80.348837 L 11.647335 45.69718 C 13.709718 44.935423 15 43 15 43 L 15 38 L 15 37 L 15 26 C 15 25.447715 14.552285 25 14 25 C 13.447715 25 13 25.447715 13 26 L 13 37 C 13 37 13 38 12 38 C 11 38 11 37 11 37 L 11 26 C 11 25.447715 10.552285 25 10 25 C 9.447715 25 9 25.447715 9 26 L 9 37 C 9 37 9 38 8 38 C 7 38 7 37 7 37 L 7 26 C 7 25.447715 6.5522847 25 6 25 C 5.4477153 25 5 25.447715 5 26 L 5 37 L 5 38 L 5 43 C 5 43 6.2902825 44.935424 8.3526657 45.69718 Z M 78.432865 17 C 76.432865 16 71.432865 24 70.432865 34 C 69.432865 44 72.432865 49 72.432865 49 L 75.444446 50.720903 L 73.432865 80.348837 C 73.432865 80.348837 74.232865 83 77.432865 83 C 80.632865 83 81.432865 80.348837 81.432865 80.348837 Z" fill="#FF7043"/></g></g></svg>